<?xml version="1.0" encoding="utf-8"?>
<!-- Generator: Adobe Illustrator 22.1.0, SVG Export Plug-In . SVG Version: 6.00 Build 0)  -->
<svg version="1.1" id="Слой_1" xmlns="http://www.w3.org/2000/svg" xmlns:xlink="http://www.w3.org/1999/xlink" x="0px" y="0px"
	 width="68" height="12" viewBox="0 0 67.6 12" style="enable-background:new 0 0 67.6 12;" xml:space="preserve">
<style type="text/css">
	.st0{fill:#F6731C;}
</style>
<path class="st0" d="M6,9.1l3.6,2.2l-1-4.1l3.2-2.8L7.6,4.1L6,0.2L4.4,4.1L0.2,4.4l3.2,2.8l-1,4.1L6,9.1z"/>
<path class="st0" d="M19.9,9.2l3.6,2.2l-1-4.2l3.2-2.8l-4.2-0.4l-1.6-3.9l-1.6,3.9l-4.2,0.4l3.2,2.8l-1,4.2L19.9,9.2z"/>
<path class="st0" d="M33.9,9.1l3.6,2.2l-1-4.2l3.2-2.8L35.6,4l-1.6-3.9L32.3,4L28,4.4l3.2,2.8l-1,4.2L33.9,9.1z"/>
<path class="st0" d="M47.8,9.1l3.6,2.2l-1-4.2l3.2-2.8L49.5,4l-1.6-3.9L46.2,4L42,4.4l3.2,2.8l-1,4.2L47.8,9.1z"/>
<path class="st0" d="M61.7,9.1l3.6,2.2l-1-4.2l3.2-2.8L63.4,4l-1.6-3.9L60.1,4l-4.2,0.4l3.2,2.8l-1,4.2L61.7,9.1z"/>
</svg>
