<?xml version="1.0" encoding="utf-8"?>
<!-- Generator: Adobe Illustrator 22.1.0, SVG Export Plug-In . SVG Version: 6.00 Build 0)  -->
<svg version="1.1" id="Слой_1" xmlns="http://www.w3.org/2000/svg" xmlns:xlink="http://www.w3.org/1999/xlink" x="0px" y="0px"
 width="68" height="12" viewBox="0 0 67.6 12" style="enable-background:new 0 0 67.6 12;" xml:space="preserve">
<style type="text/css">
	.st0{fill:#DEDEDE;}
</style>
<path class="st0" d="M11.8,4.4L7.6,4L6,0.2L4.4,4L0.2,4.4l3.2,2.8l-1,4.1L6,9.1l3.6,2.2l-1-4.1L11.8,4.4z M6,8L3.8,9.3l0.6-2.5
	L2.5,5.1L5,4.9l1-2.4l1,2.4l2.6,0.2L7.6,6.8l0.6,2.5L6,8z"/>
<path class="st0" d="M39.7,4.4L35.5,4l-1.6-3.9L32.2,4L28,4.4l3.2,2.8l-1,4.1l3.6-2.2l3.6,2.2l-1-4.1L39.7,4.4z M33.9,8l-2.2,1.3
	l0.6-2.5l-1.9-1.7l2.6-0.2l1-2.4l1,2.4l2.6,0.2l-1.9,1.7l0.6,2.5L33.9,8z"/>
<path class="st0" d="M25.8,4.4L21.6,4l-1.6-3.9L18.3,4l-4.2,0.4l3.2,2.8l-1,4.1l3.6-2.2l3.6,2.2l-1-4.1L25.8,4.4z M19.9,8l-2.2,1.3
	l0.6-2.5l-1.9-1.7l2.6-0.2l1-2.4l1,2.4l2.6,0.2l-1.9,1.7l0.6,2.5L19.9,8z"/>
<path class="st0" d="M53.7,4.4L49.5,4l-1.6-3.9L46.2,4L42,4.4l3.2,2.8l-1,4.1l3.6-2.2l3.6,2.2l-1-4.1L53.7,4.4z M47.8,8l-2.2,1.3
	l0.6-2.5l-1.9-1.7l2.6-0.2l1-2.4l1,2.4l2.6,0.2l-1.9,1.7L50,9.3L47.8,8z"/>
<path class="st0" d="M67.6,4.4L63.4,4l-1.6-3.9L60.1,4l-4.2,0.4l3.2,2.8l-1,4.1l3.6-2.2l3.6,2.2l-1-4.1L67.6,4.4z M61.8,8l-2.2,1.3
	l0.6-2.5l-1.9-1.7l2.6-0.2l1-2.4l1,2.4l2.6,0.2l-1.9,1.7L64,9.3L61.8,8z"/>
</svg>
